<svg width="17" height="17" viewBox="0 0 17 17" fill="none" xmlns="http://www.w3.org/2000/svg">
<g id="phone" clip-path="url(#clip0_1_16)">
<path id="Vector" d="M7.18721 9.74642C8.17297 10.7464 9.36571 11.5185 10.6817 12.0084L12.4619 10.5917C12.5147 10.5554 12.5773 10.5359 12.6414 10.5359C12.7055 10.5359 12.768 10.5554 12.8208 10.5917L16.1264 12.7214C16.2519 12.7969 16.3581 12.9005 16.4367 13.024C16.5153 13.1476 16.564 13.2877 16.5791 13.4334C16.5943 13.579 16.5753 13.7262 16.5238 13.8632C16.4722 14.0003 16.3895 14.1235 16.2822 14.2231L14.7333 15.7531C14.5115 15.9723 14.2389 16.1331 13.9398 16.2213C13.6407 16.3094 13.3244 16.3222 13.0192 16.2584C9.97437 15.6295 7.16791 14.1567 4.92054 12.0084C2.72305 9.83862 1.20239 7.07782 0.543043 4.06087C0.477907 3.76036 0.491502 3.44813 0.582509 3.15442C0.673517 2.86072 0.83885 2.5955 1.06249 2.38448L2.66804 0.835588C2.7674 0.733488 2.88856 0.655187 3.02247 0.60655C3.15637 0.557912 3.29954 0.540198 3.44126 0.554733C3.58298 0.569269 3.71958 0.615677 3.84082 0.690484C3.96207 0.76529 4.06482 0.866556 4.14138 0.986699L6.34193 4.24976C6.37989 4.30099 6.40038 4.36307 6.40038 4.42684C6.40038 4.4906 6.37989 4.55268 6.34193 4.60392L4.89221 6.34642C5.3954 7.63603 6.17936 8.79746 7.18721 9.74642Z" fill="white"/>
</g>
<defs>
<clipPath id="clip0_1_16">
<rect width="17" height="17" fill="white"/>
</clipPath>
</defs>
</svg>
