<svg width="15" height="33" viewBox="0 0 15 33" fill="none" xmlns="http://www.w3.org/2000/svg">
<path d="M7.318 5.04L6.994 4.428C7.546 4.188 7.822 3.762 7.822 3.15C7.822 2.766 7.702 2.46 7.462 2.232C7.222 2.016 6.952 1.908 6.652 1.908C6.424 1.908 6.226 1.974 6.058 2.106C5.902 2.238 5.782 2.376 5.698 2.52C5.626 2.664 5.53 2.892 5.41 3.204C5.398 3.252 5.35 3.366 5.266 3.546C5.194 3.738 5.146 3.864 5.122 3.924C5.098 3.984 5.05 4.086 4.978 4.23C4.918 4.386 4.858 4.5 4.798 4.572C4.75 4.644 4.684 4.728 4.6 4.824C4.516 4.932 4.426 5.022 4.33 5.094C4.018 5.346 3.622 5.472 3.142 5.472C2.362 5.472 1.774 5.232 1.378 4.752C0.994 4.284 0.802 3.726 0.802 3.078C0.802 2.454 0.976 1.914 1.324 1.458C1.672 1.002 2.146 0.696 2.746 0.54L2.962 1.242C2.494 1.362 2.128 1.59 1.864 1.926C1.612 2.274 1.486 2.658 1.486 3.078C1.486 3.546 1.636 3.936 1.936 4.248C2.248 4.56 2.638 4.716 3.106 4.716C3.49 4.716 3.784 4.596 3.988 4.356C4.204 4.116 4.438 3.69 4.69 3.078C5.038 2.238 5.362 1.704 5.662 1.476C5.95 1.26 6.268 1.152 6.616 1.152C7.168 1.152 7.618 1.338 7.966 1.71C8.326 2.082 8.506 2.55 8.506 3.114C8.506 4.062 8.11 4.704 7.318 5.04ZM7.57 13.1937H6.616C7.42 12.4977 7.822 11.6517 7.822 10.6557C7.822 9.76772 7.516 9.03572 6.904 8.45972C6.304 7.88372 5.548 7.59572 4.636 7.59572C3.652 7.59572 2.878 7.90172 2.314 8.51372C1.762 9.12572 1.486 9.82772 1.486 10.6197C1.486 11.5917 1.924 12.4797 2.8 13.2837L1.828 13.2837C1.144 12.5157 0.802 11.6217 0.802 10.6017C0.802 9.49772 1.162 8.59172 1.882 7.88372C2.614 7.18772 3.526 6.83972 4.618 6.83972C5.734 6.83972 6.658 7.18772 7.39 7.88372C8.134 8.57972 8.506 9.50372 8.506 10.6557C8.506 11.6037 8.194 12.4497 7.57 13.1937ZM1 15.2706L8.344 15.2706V15.9906H7.39C8.134 16.3146 8.506 16.8546 8.506 17.6106C8.506 17.8986 8.446 18.1566 8.326 18.3846L7.678 18.0246C7.774 17.8926 7.822 17.7126 7.822 17.4846C7.822 17.1366 7.72 16.8486 7.516 16.6206C7.324 16.4046 7.048 16.2546 6.688 16.1706C6.34 16.0986 6.046 16.0506 5.806 16.0266C5.566 16.0026 5.278 15.9906 4.942 15.9906L1 15.9906V15.2706ZM7.39 20.1897C8.134 20.9337 8.506 21.8517 8.506 22.9437C8.506 24.0357 8.134 24.9477 7.39 25.6797C6.658 26.4237 5.746 26.7957 4.654 26.7957C3.562 26.7957 2.644 26.4237 1.9 25.6797C1.168 24.9477 0.802 24.0357 0.802 22.9437C0.802 21.8517 1.168 20.9337 1.9 20.1897C2.644 19.4577 3.562 19.0917 4.654 19.0917C5.746 19.0917 6.658 19.4577 7.39 20.1897ZM2.404 20.7297C1.792 21.3297 1.486 22.0677 1.486 22.9437C1.486 23.8197 1.792 24.5517 2.404 25.1397C3.016 25.7397 3.766 26.0397 4.654 26.0397C5.542 26.0397 6.292 25.7397 6.904 25.1397C7.516 24.5517 7.822 23.8197 7.822 22.9437C7.822 22.0677 7.516 21.3297 6.904 20.7297C6.292 20.1417 5.542 19.8477 4.654 19.8477C3.766 19.8477 3.016 20.1417 2.404 20.7297ZM14.122 28.9112V29.6312H1V28.9112H14.122ZM14.122 32.2159V32.9359H1V32.2159H14.122Z" fill="white"/>
</svg>
