<svg width="53" height="45" viewBox="0 0 53 45" fill="none" xmlns="http://www.w3.org/2000/svg">
<circle cx="30.5" cy="22.5" r="22.5" fill="#037E8C"/>
<path d="M0.399951 21.4001C-4.85778e-05 26.2001 1.39995 30.2001 4.39995 33.8001C7.39995 37.4001 11.4 39.0001 16.2 39.0001H36.2C37.2 39.0001 38.2 38.6001 39 37.8001C39.7999 37.0001 40.2 36.0001 40.2 35.0001V33.4001C40.2 32.2001 40 30.8001 39.7999 29.0001H23.4C21.4 29.0001 19.7999 28.2001 18.4 26.8001C17 25.4001 16.2 23.6001 16.2 21.8001C16.2 18.6001 17.6 16.4001 20.6 15.2001L30.2 11.0001C26.8 8.60009 22.8 7.20009 18.2 7.00009C13.8 6.60009 9.79995 8.00009 6.19995 10.8001C2.59995 13.6001 0.799951 17.0001 0.399951 21.4001ZM20.2 21.8001C20.2 22.6001 20.6 23.4001 21.2 24.0001C21.8 24.6001 22.6 25.0001 23.4 25.0001H39C37.7999 20.6001 36 17.0001 33.4 14.2001L22.2 18.8001C20.8 19.2001 20.2 20.2001 20.2 21.8001Z" fill="#121214"/>
</svg>
