<svg width="31" height="31" viewBox="0 0 31 31" fill="none" xmlns="http://www.w3.org/2000/svg">
<circle cx="15.5" cy="15.5" r="15.5" fill="white"/>
<path fill-rule="evenodd" clip-rule="evenodd" d="M8 15.9999C8 15.8673 8.05268 15.7401 8.14645 15.6463C8.24021 15.5526 8.36739 15.4999 8.5 15.4999H20.293L17.146 12.3539C17.0521 12.26 16.9994 12.1327 16.9994 11.9999C16.9994 11.8671 17.0521 11.7398 17.146 11.6459C17.2399 11.552 17.3672 11.4993 17.5 11.4993C17.6328 11.4993 17.7601 11.552 17.854 11.6459L21.854 15.6459C21.9006 15.6923 21.9375 15.7475 21.9627 15.8083C21.9879 15.869 22.0009 15.9341 22.0009 15.9999C22.0009 16.0657 21.9879 16.1308 21.9627 16.1915C21.9375 16.2523 21.9006 16.3075 21.854 16.3539L17.854 20.3539C17.7601 20.4478 17.6328 20.5005 17.5 20.5005C17.3672 20.5005 17.2399 20.4478 17.146 20.3539C17.0521 20.26 16.9994 20.1327 16.9994 19.9999C16.9994 19.8671 17.0521 19.7398 17.146 19.6459L20.293 16.4999H8.5C8.36739 16.4999 8.24021 16.4472 8.14645 16.3535C8.05268 16.2597 8 16.1325 8 15.9999Z" fill="#037E8C"/>
</svg>
